<?xml version="1.0" encoding="utf-8"?>
<!-- Generator: Adobe Illustrator 26.2.1, SVG Export Plug-In . SVG Version: 6.00 Build 0)  -->
<svg version="1.1" id="Capa_1" xmlns="http://www.w3.org/2000/svg" xmlns:xlink="http://www.w3.org/1999/xlink" x="0px" y="0px"
	 viewBox="0 0 595.3 841.9" style="enable-background:new 0 0 595.3 841.9;" xml:space="preserve">
<style type="text/css">
	.st0{fill:#97014B;}
	.st1{fill:#66013B;}
</style>
<g>
	<path class="st0" d="M707.3,645.4H59.7L380.8,93.8L707.3,645.4z M94.9,625.2h576.8L381,133.9L94.9,625.2z"/>
</g>
<g>
	<g>
		<polygon class="st1" points="399.8,165.7 457.2,262.6 457.2,222.8 399.8,125.9 		"/>
		<polygon class="st1" points="304.8,224.4 304.8,264.7 361.6,167.1 361.6,126.9 		"/>
		<polygon class="st1" points="457.2,625.2 399.8,625.2 399.7,645.4 457.2,645.4 		"/>
		<rect x="304.8" y="625.2" class="st1" width="56.8" height="20.3"/>
	</g>
	<g>
		<path class="st1" d="M614.3,528l34.1,57.6l1.7-2.7c3.5-5.7,6.9-11.5,10-17.4l-36-60.9C621.1,512.6,617.9,520.4,614.3,528z"/>
		<polygon class="st1" points="484.9,269.7 484.9,309.5 565.9,446.2 589.4,446.2 555.5,388.9 541.3,388.9 541.3,365 		"/>
		<rect x="485" y="625.2" class="st1" width="56.3" height="20.3"/>
	</g>
	<g>
		<path class="st1" d="M115.8,589.3l33.6-57.8c-3.7-7.5-7-15.2-10-23.1l-35.5,61C107.6,576.2,111.6,582.8,115.8,589.3z"/>
		<polygon class="st1" points="265.1,292.7 276.4,292.7 276.4,273.2 		"/>
		<path class="st1" d="M276.4,625.2H142.8c6.1,7.1,12.6,13.8,19.3,20.3h114.3V625.2z"/>
	</g>
</g>
<path class="st0" d="M492.4,129.2l0.1,575.5c14.3-5.6,28.1-12.1,41.3-19.7l0-246.3l112.1,0c-4.2,52.1-24,101.3-54,140.6l51.7-0.3
	c29.1-47.1,45.9-102.6,45.9-162C689.6,285.9,607.8,173.9,492.4,129.2z M533.8,396.4V199.5c63,44.4,105.9,115.4,112.2,196.8
	L533.8,396.4z"/>
<path class="st0" d="M407.1,724.4c14.5-1.2,28.7-3.4,42.6-6.6l0-601.7c-13.8-3.1-27.9-5.3-42.4-6.6v286.8h-53.1l-0.1-286.7
	c-14.2,1.2-28.2,3.4-41.8,6.5l0,601.6c13.6,3.1,27.6,5.3,41.8,6.5V438.4h53.5L407.1,724.4z"/>
<path class="st0" d="M227.4,634.3c-68-48.1-112.1-127.5-112.1-217.3c0-89.5,44.2-168.7,112.1-216.8l0,85h41.6l0-155.6
	C154,174.4,72.5,286.2,72.5,417c0,131.1,81.1,243.1,196.4,287.8v-38.1v-8.3v-46.2h-41.6V634.3z"/>
</svg>
