<svg id="Capa_1" data-name="Capa 1" xmlns="http://www.w3.org/2000/svg" xmlns:xlink="http://www.w3.org/1999/xlink" viewBox="0 0 596 597"><defs><filter id="filter" x="8" y="21" width="501" height="552" filterUnits="userSpaceOnUse"><feOffset dx="1" dy="1" input="SourceAlpha"/><feGaussianBlur stdDeviation="9" result="blur"/><feFlood/><feComposite operator="in" in2="blur"/><feComposite in="SourceGraphic"/></filter><filter id="filter-2" x="0" y="60" width="532" height="537" filterUnits="userSpaceOnUse"><feOffset dx="1" dy="1" input="SourceAlpha"/><feGaussianBlur stdDeviation="9" result="blur-2"/><feFlood/><feComposite operator="in" in2="blur-2"/><feComposite in="SourceGraphic"/></filter><filter id="filter-3" x="27" y="8" width="535" height="537" filterUnits="userSpaceOnUse"><feOffset dx="1" dy="1" input="SourceAlpha"/><feGaussianBlur stdDeviation="9" result="blur-3"/><feFlood/><feComposite operator="in" in2="blur-3"/><feComposite in="SourceGraphic"/></filter><filter id="filter-4" x="41" y="0" width="555" height="483" filterUnits="userSpaceOnUse"><feOffset dx="1" dy="1" input="SourceAlpha"/><feGaussianBlur stdDeviation="9" result="blur-4"/><feFlood/><feComposite operator="in" in2="blur-4"/><feComposite in="SourceGraphic"/></filter><filter id="filter-5"><feOffset dx="1" dy="1" input="SourceAlpha"/><feGaussianBlur stdDeviation="9" result="blur-5"/><feFlood/><feComposite operator="in" in2="blur-5"/><feComposite in="SourceGraphic"/></filter></defs><polygon points="448.48 47.95 34.63 318.24 480.74 544.01 448.48 47.95" style="fill:#97014b;filter:url(#filter)"/><polygon points="503.69 86.86 26.22 214.74 379.76 568.28 503.69 86.86" style="fill:#97014b;filter:url(#filter-2)"/><polygon points="412.55 34.21 53.77 374.2 533.08 516.48 412.55 34.21" style="fill:#97014b;filter:url(#filter-3)"/><polygon points="314.53 26.15 67.33 454.19 567.32 454.19 314.53 26.15" style="fill:#97014b;filter:url(#filter-4)"/><g style="filter:url(#filter-5)"><path d="M301.93,196.2q-3.93,33.68-24.85,52t-55.61,18.29q-37.6,0-60.27-27t-22.66-72.14V146.94q0-29.59,10.57-52t29.95-34.48q19.38-12,44.89-12,33.81,0,54.22,18.87t23.76,52.26H273.8Q270.15,94.1,258,82.7T224,71.29q-26.82,0-42,19.84t-15.23,56.46v20.57q0,34.58,14.43,55t40.37,20.43q23.33,0,35.79-10.57T273.8,196.2Z" style="fill:#97014b"/><path d="M503.22,263.54H475.09V165.45h-107v98.09h-28V51.32h28v91.25h107V51.32h28.13Z" style="fill:#97014b"/><path d="M361.71,444.08H272.8l-20,55.53H224l81-212.22h24.48l81.19,212.22H382Zm-80.46-22.89H353.4l-36.15-99.26Z" style="fill:#97014b"/></g></svg>