<svg id="Capa_1" data-name="Capa 1" xmlns="http://www.w3.org/2000/svg" xmlns:xlink="http://www.w3.org/1999/xlink" viewBox="0 0 555 500.01"><defs><filter id="filter" x="0" y="0" width="555" height="483" filterUnits="userSpaceOnUse"><feOffset dx="1" dy="1" input="SourceAlpha"/><feGaussianBlur stdDeviation="9" result="blur"/><feFlood/><feComposite operator="in" in2="blur"/><feComposite in="SourceGraphic"/></filter><filter id="filter-2"><feOffset dx="1" dy="1" input="SourceAlpha"/><feGaussianBlur stdDeviation="9" result="blur-2"/><feFlood/><feComposite operator="in" in2="blur-2"/><feComposite in="SourceGraphic"/></filter></defs><polygon points="273.87 26.55 26.67 454.59 526.66 454.59 273.87 26.55" style="fill:#97014b;filter:url(#filter)"/><g style="filter:url(#filter-2)"><path d="M261.27,196.6q-3.93,33.68-24.85,52t-55.6,18.3q-37.6,0-60.27-27T97.88,167.74v-20.4q0-29.59,10.57-52t30-34.47q19.38-12,44.89-12,33.83,0,54.22,18.87t23.76,52.25H233.14q-3.64-25.43-15.81-36.84t-34-11.4q-26.82,0-42,19.84T126,148v20.57q0,34.57,14.43,55T180.82,244q23.31,0,35.78-10.57t16.54-36.8Z" style="fill:#97014b"/><path d="M462.56,263.94H434.43V165.85h-107v98.09h-28V51.72h28V143h107V51.72h28.13Z" style="fill:#97014b"/><path d="M321.05,444.47H232.14l-20,55.54H183.31l81-212.22h24.48L370,500H341.31Zm-80.46-22.88h72.15l-36.15-99.26Z" style="fill:#97014b"/></g></svg>